<?xml version="1.0" encoding="UTF-8"?>
<svg width="171px" height="20px" viewBox="0 0 171 20" version="1.1" xmlns="http://www.w3.org/2000/svg" xmlns:xlink="http://www.w3.org/1999/xlink">
    <!-- Generator: sketchtool 51.2 (57519) - http://www.bohemiancoding.com/sketch -->
    <title>997F072A-94C9-4BB0-882A-CAEFDC62AADD</title>
    <desc>Created with sketchtool.</desc>
    <defs></defs>
    <g id="Place_Mobile" stroke="none" stroke-width="1" fill="none" fill-rule="evenodd">
        <g id="모바일_메인" transform="translate(-75.000000, -74.000000)" fill="#FF4081">
            <g id="header" transform="translate(0.000000, 60.000000)">
                <g id="logo/place_pink" transform="translate(75.000000, 14.000000)">
                    <path d="M168.736561,6.62926829 L170.811971,2.91707317 C171.065626,2.4640064 171.062445,1.90850706 170.803619,1.45845178 C170.544792,1.0083965 170.069334,0.731624154 169.555168,0.731707317 L156.024071,0.731707317 C156.024071,0.327596525 155.700686,0 155.301771,0 C154.902855,0 154.57947,0.327596525 154.57947,0.731707317 L154.57947,19.2682927 C154.57947,19.6724035 154.902855,20 155.301771,20 C155.700686,20 156.024071,19.6724035 156.024071,19.2682927 L156.024071,12.9268293 L169.507015,12.9268293 C170.007173,12.9261368 170.471391,12.6634095 170.734179,12.2323078 C170.996967,11.8012062 171.02093,11.2630755 170.797525,10.8097561 L168.736561,6.62926829 Z M156.024071,11.4634146 L156.024071,2.19512195 L169.507015,2.19512195 L167.065639,6.58536585 L169.473307,11.4634146 L156.024071,11.4634146 Z" id="Shape"></path>
                    <g id="logo_place" stroke-width="1" transform="translate(0.000000, 0.571429)">
                        <path d="M9.6559676,10.3308229 L9.6559676,10.2859096 C9.6559676,8.50499949 8.37579679,6.95099923 6.4892088,6.95099923 C4.53606282,6.95099923 3.36837889,8.46008619 3.36837889,10.2409963 L3.36837889,10.2859096 C3.36837889,12.0652574 4.64893893,13.6192577 6.53397001,13.6192577 C8.48750522,13.6192577 9.6559676,12.1105613 9.6559676,10.3308229 M0,10.3308229 L0,10.2859096 C0,6.81586878 2.7841477,4 6.53397001,4 C10.2619956,4 13.0231788,6.77056492 13.0231788,10.2409963 L13.0231788,10.2859096 C13.0231788,13.7547787 10.2390311,16.5714286 6.4892088,16.5714286 C2.76235094,16.5714286 0,13.799692 0,10.3308229" id="Fill-1"></path>
                        <path d="M14.7218543,5.82118519 C14.7218543,4.86499388 15.466293,4.09001306 16.3873459,4.09001306 C17.3072594,4.09001306 18.0528375,4.86499388 18.0528375,5.82118519 L18.0528375,5.95778395 C18.8196853,4.93289846 19.8045473,4 21.492448,4 C24.0117652,4 25.4801325,5.72998775 25.4801325,8.53184149 L25.4801325,14.8402564 C25.4801325,15.7964478 24.7345543,16.5714286 23.8146408,16.5714286 C22.8951072,16.5714286 22.1495291,15.7964478 22.1495291,14.8402564 L22.1495291,9.62463156 C22.1495291,7.98465687 21.4050904,7.14177146 20.1342272,7.14177146 C18.8622247,7.14177146 18.0528375,7.98465687 18.0528375,9.62463156 L18.0528375,14.8402564 C18.0528375,15.7964478 17.3072594,16.5714286 16.3873459,16.5714286 C15.466293,16.5714286 14.7218543,15.7964478 14.7218543,14.8402564 L14.7218543,5.82118519 Z" id="Fill-3"></path>
                        <path d="M36.8348762,10.3308229 L36.8348762,10.2859096 C36.8348762,8.50499949 35.5543544,6.95099923 33.6678228,6.95099923 C31.7147352,6.95099923 30.5474754,8.46008619 30.5474754,10.2409963 L30.5474754,10.2859096 C30.5474754,12.0652574 31.8276079,13.6192577 33.7129719,13.6192577 C35.6660595,13.6192577 36.8348762,12.1105613 36.8348762,10.3308229 M27.1788079,10.3308229 L27.1788079,10.2859096 C27.1788079,6.81586878 29.9632617,4 33.7129719,4 C37.440886,4 40.2019868,6.77056492 40.2019868,10.2409963 L40.2019868,10.2859096 C40.2019868,13.7547787 37.4179223,16.5714286 33.6678228,16.5714286 C29.9410763,16.5714286 27.1788079,13.799692 27.1788079,10.3308229" id="Fill-5"></path>
                        <path d="M50.2013594,7.38200446 L50.0755599,7.38200446 C49.3436028,7.38200446 48.757747,6.78004673 48.757747,5.99908679 C48.757747,5.21851347 49.3436028,4.59490536 50.0755599,4.59490536 L50.2013594,4.59490536 L50.2013594,3.83598242 C50.2013594,2.52072217 50.5145892,1.56114664 51.0997198,0.936378695 C51.6855756,0.312383974 52.5433322,0 53.6722646,0 C54.1747374,0 54.6137667,0.0228102159 54.9690505,0.0893077946 C55.5132147,0.178615589 56.0562914,0.691265527 56.0562914,1.44902863 C56.0562914,2.20795158 55.4715233,2.85475652 54.7598681,2.85475652 L54.4879672,2.85475652 C53.7563726,2.85475652 53.3372827,3.2568349 53.3372827,4.14836639 L53.3372827,4.61655574 L54.7178141,4.61655574 C55.4501337,4.61655574 56.0359895,5.21851347 56.0359895,5.99908679 C56.0359895,6.78004673 55.4501337,7.38200446 54.7178141,7.38200446 L53.3796992,7.38200446 L53.3796992,14.8761269 C53.3796992,15.8125056 52.6691316,16.5714286 51.7899855,16.5714286 C50.911927,16.5714286 50.2013594,15.8125056 50.2013594,14.8761269 L50.2013594,7.38200446 Z M42.2121868,7.38200446 L42.0863873,7.38200446 C41.3544302,7.38200446 40.7682119,6.78004673 40.7682119,5.99908679 C40.7682119,5.21851347 41.3544302,4.59490536 42.0863873,4.59490536 L42.2121868,4.59490536 L42.2121868,3.83598242 C42.2121868,2.52072217 42.5254166,1.56114664 43.1101847,0.936378695 C43.6967655,0.312383974 44.5541596,0 45.6834545,0 C46.1855648,0 46.6245941,0.0228102159 46.9798779,0.0893077946 C47.5240422,0.178615589 48.0671188,0.691265527 48.0671188,1.44902863 C48.0671188,2.20795158 47.4823507,2.85475652 46.7706955,2.85475652 L46.4991571,2.85475652 C45.7672,2.85475652 45.3484727,3.2568349 45.3484727,4.14836639 L45.3484727,4.61655574 L46.729004,4.61655574 C47.4605986,4.61655574 48.0468169,5.21851347 48.0468169,5.99908679 C48.0468169,6.78004673 47.4605986,7.38200446 46.729004,7.38200446 L45.3901641,7.38200446 L45.3901641,14.8761269 C45.3901641,15.8125056 44.6799591,16.5714286 43.8008129,16.5714286 C42.9227544,16.5714286 42.2121868,15.8125056 42.2121868,14.8761269 L42.2121868,7.38200446 Z" id="Fill-7"></path>
                        <path d="M58.3211921,5.82118519 C58.3211921,4.86499388 59.0502724,4.09001306 59.9519512,4.09001306 C60.8532582,4.09001306 61.5834544,4.86499388 61.5834544,5.82118519 L61.5834544,5.95778395 C62.3341095,4.93289846 63.3209718,4 64.9733058,4 C66.47536,4 67.6128741,4.70589185 68.2132494,5.93567548 C69.2220584,4.682599 70.423553,4 71.9895877,4 C74.4148957,4 75.8741722,5.54759288 75.8741722,8.48604537 L75.8741722,14.8402564 C75.8741722,15.7964478 75.1450919,16.5714286 74.243041,16.5714286 C73.3421061,16.5714286 72.6130258,15.7964478 72.6130258,14.8402564 L72.6130258,9.62463156 C72.6130258,7.98465687 71.9256072,7.14177146 70.7021658,7.14177146 C69.4798404,7.14177146 68.7288133,7.98465687 68.7288133,9.62463156 L68.7288133,14.8402564 C68.7288133,15.7964478 67.9986171,16.5714286 67.0976821,16.5714286 C66.1967472,16.5714286 65.4665509,15.7964478 65.4665509,14.8402564 L65.4665509,9.62463156 C65.4665509,7.98465687 64.7802483,7.14177146 63.5568069,7.14177146 C62.3341095,7.14177146 61.5834544,7.98465687 61.5834544,9.62463156 L61.5834544,14.8402564 C61.5834544,15.7964478 60.8532582,16.5714286 59.9519512,16.5714286 C59.0502724,16.5714286 58.3211921,15.7964478 58.3211921,14.8402564 L58.3211921,5.82118519 Z" id="Fill-9"></path>
                        <path d="M83.6933642,13.8843183 L86.6758609,10.1945254 L83.9534503,6.91527978 C83.583894,6.46051982 83.4094967,6.04997264 83.4094967,5.59442316 C83.4094967,4.61582078 84.1067086,4 84.9337748,4 C85.5879536,4 86.0447086,4.31935834 86.480702,4.88820305 L88.6365099,7.89467168 L90.8349735,4.88820305 C91.2271788,4.38804604 91.6843113,4 92.2724305,4 C93.1440397,4 93.8189801,4.63832192 93.8189801,5.50323432 C93.8189801,5.98207445 93.6223113,6.34564556 93.3618477,6.68829456 L90.5307219,10.1491284 L93.4490464,13.6565435 C93.8189801,14.1124878 93.9933775,14.5214559 93.9933775,14.9774002 C93.9933775,15.9567921 93.2957881,16.5714286 92.4687219,16.5714286 C91.815298,16.5714286 91.3581656,16.252465 90.9221722,15.6832255 L88.5708278,12.4489822 L86.219106,15.6832255 C85.8265232,16.1845668 85.3693907,16.5714286 84.7820265,16.5714286 C83.9100397,16.5714286 83.2350993,15.9331066 83.2350993,15.068589 C83.2350993,14.5905384 83.4094967,14.225783 83.6933642,13.8843183" id="Fill-11"></path>
                        <path d="M79.8377483,4 C78.8995061,4 78.1390728,4.7805698 78.1390728,5.74365694 L78.1390728,14.8277716 C78.1390728,15.7908588 78.8995061,16.5714286 79.8377483,16.5714286 C80.7759905,16.5714286 81.5364238,15.7908588 81.5364238,14.8277716 L81.5364238,5.74365694 C81.5364238,4.7805698 80.7759905,4 79.8377483,4" id="Fill-13"></path>
                        <path d="M81.5364238,1.71428571 C81.5364238,2.66103817 80.7758797,3.42857143 79.8377483,3.42857143 C78.899617,3.42857143 78.1390728,2.66103817 78.1390728,1.71428571 C78.1390728,0.767533262 78.899617,0 79.8377483,0 C80.7758797,0 81.5364238,0.767533262 81.5364238,1.71428571" id="Fill-15"></path>
                        <path d="M99.6556291,15.1428571 C99.6556291,16.2478343 98.7683256,17.1428571 97.6738411,17.1428571 C96.5793565,17.1428571 95.692053,16.2478343 95.692053,15.1428571 C95.692053,14.0383147 96.5793565,13.1428571 97.6738411,13.1428571 C98.7683256,13.1428571 99.6556291,14.0383147 99.6556291,15.1428571" id="Fill-17"></path>
                        <path d="M110.483923,10.7299611 L110.483923,10.6885981 C110.483923,8.17279703 108.75323,6.56505016 106.733444,6.56505016 C104.755012,6.56505016 102.879,8.23542146 102.879,10.6673367 L102.879,10.7086998 C102.879,13.1831378 104.755012,14.8322477 106.733444,14.8322477 C108.794584,14.8322477 110.483923,13.3060672 110.483923,10.7299611 Z M101.354305,6.07101301 C101.354305,5.61679262 101.704076,5.26694629 102.136556,5.26694629 C102.59068,5.26694629 102.940451,5.61679262 102.940451,6.07101301 L102.940451,7.51330769 C103.806957,6.23530549 105.063429,5.14285714 107.021764,5.14285714 C109.577222,5.14285714 112.112583,7.16307478 112.112583,10.6673367 L112.112583,10.7086998 C112.112583,14.19286 109.598479,16.2544407 107.021764,16.2544407 C105.043332,16.2544407 103.765603,15.1824806 102.940451,13.9868179 L102.940451,18.6248913 C102.940451,19.0787251 102.610777,19.4285714 102.1582,19.4285714 C101.704076,19.4285714 101.354305,19.0787251 101.354305,18.6248913 L101.354305,6.07101301 Z" id="Fill-19"></path>
                        <path d="M113.811258,1.92707093 C113.811258,1.50428068 114.185844,1.14285714 114.649007,1.14285714 C115.134934,1.14285714 115.509934,1.50428068 115.509934,1.92707093 L115.509934,15.2172921 C115.509934,15.659283 115.156871,16 114.671772,16 C114.185844,16 113.811258,15.659283 113.811258,15.2172921 L113.811258,1.92707093 Z" id="Fill-21"></path>
                        <path d="M124.810981,11.9208653 L124.810981,10.9059336 C124.053551,10.6825497 123.034912,10.4591658 121.778266,10.4591658 C119.842028,10.4591658 118.765009,11.3119824 118.765009,12.6305944 L118.765009,12.671694 C118.765009,13.991067 119.962154,14.7616844 121.359134,14.7616844 C123.254956,14.7616844 124.810981,13.5850183 124.810981,11.9208653 M117.208609,12.7318211 L117.208609,12.6922438 C117.208609,10.4800961 119.004139,9.30228832 121.618097,9.30228832 C122.935368,9.30228832 123.873923,9.48495318 124.791522,9.74905613 L124.791522,9.3837264 C124.791522,7.49695058 123.653879,6.52197687 121.717641,6.52197687 C120.680665,6.52197687 119.801986,6.76629112 119.044181,7.1106905 C118.944637,7.15140954 118.843971,7.17157879 118.765009,7.17157879 C118.405754,7.17157879 118.086166,6.8675179 118.086166,6.50218817 C118.086166,6.17757749 118.305836,5.93440489 118.504923,5.8529668 C119.52244,5.40581844 120.560913,5.14285714 121.877809,5.14285714 C123.33504,5.14285714 124.451726,5.52797556 125.210279,6.29973462 C125.908956,7.00946372 126.268212,8.02439537 126.268212,9.36393771 L126.268212,15.1072255 C126.268212,15.5528516 125.948624,15.8778429 125.529867,15.8778429 C125.090527,15.8778429 124.791522,15.5528516 124.791522,15.1471834 L124.791522,14.1939012 C124.073011,15.1471834 122.875866,16 121.059754,16 C119.143725,16 117.208609,14.8838416 117.208609,12.7318211" id="Fill-23"></path>
                        <path d="M127.966887,10.8996091 L127.966887,10.8571429 C127.966887,7.76703114 130.301713,5.14285714 133.394714,5.14285714 C135.15534,5.14285714 136.344069,5.8405731 137.286219,6.73037922 C137.407972,6.83594944 137.531262,7.04708987 137.531262,7.30228405 C137.531262,7.74639335 137.182517,8.08493243 136.773855,8.08493243 C136.568372,8.08493243 136.384014,8 136.261876,7.89442978 C135.504085,7.17448852 134.64336,6.58234279 133.373206,6.58234279 C131.222739,6.58234279 129.584251,8.46593773 129.584251,10.8146766 L129.584251,10.8571429 C129.584251,13.2277102 131.263835,15.1113051 133.475755,15.1113051 C134.684073,15.1113051 135.647347,14.5394003 136.424726,13.7785804 C136.527276,13.6718195 136.67169,13.5662493 136.876021,13.5662493 C137.26471,13.5662493 137.592715,13.9266168 137.592715,14.3064314 C137.592715,14.4969341 137.511674,14.6874367 137.388,14.8152323 C136.384014,15.8518842 135.176464,16.5714286 133.394714,16.5714286 C130.301713,16.5714286 127.966887,13.9678924 127.966887,10.8996091" id="Fill-25"></path>
                        <path d="M147.308627,10.2431687 C147.142167,8.25360665 146.013764,6.51804814 143.862709,6.51804814 C141.983082,6.51804814 140.562492,8.10557022 140.354124,10.2431687 L147.308627,10.2431687 Z M144.112987,16.5714286 C141.147257,16.5714286 138.725166,14.2655528 138.725166,10.8789713 L138.725166,10.8365051 C138.725166,7.68328935 140.918521,5.14285714 143.904618,5.14285714 C147.100259,5.14285714 148.917219,7.78885956 148.917219,10.6884686 C148.917219,11.1325779 148.562757,11.4496855 148.165211,11.4496855 L140.354124,11.4496855 C140.584034,13.8198559 142.233751,15.1537714 144.154895,15.1537714 C145.491667,15.1537714 146.473977,14.6247296 147.267894,13.8841506 C147.392445,13.7785804 147.53893,13.6936479 147.72654,13.6936479 C148.123302,13.6936479 148.43703,14.0107555 148.43703,14.3917608 C148.43703,14.5822634 148.353213,14.7727661 148.186753,14.9208025 C147.162534,15.9161788 145.951489,16.5714286 144.112987,16.5714286 Z" id="Fill-27"></path>
                    </g>
                </g>
            </g>
        </g>
    </g>
</svg>