<?xml version="1.0" encoding="UTF-8"?>
<svg width="20px" height="18px" viewBox="0 0 20 18" version="1.1" xmlns="http://www.w3.org/2000/svg" xmlns:xlink="http://www.w3.org/1999/xlink">
    <!-- Generator: sketchtool 51.2 (57519) - http://www.bohemiancoding.com/sketch -->
    <title>1D49A9AC-D1B0-495A-A798-E1B39B17B018</title>
    <desc>Created with sketchtool.</desc>
    <defs></defs>
    <g id="Place_Mobile" stroke="none" stroke-width="1" fill="none" fill-rule="evenodd">
        <g id="모바일_메인" transform="translate(-287.000000, -75.000000)" fill="#FF4081" fill-rule="nonzero">
            <g id="header" transform="translate(0.000000, 60.000000)">
                <path d="M287.75,15 L306.25,15 C306.664214,15 307,15.3357864 307,15.75 C307,16.1642136 306.664214,16.5 306.25,16.5 L287.75,16.5 C287.335786,16.5 287,16.1642136 287,15.75 C287,15.3357864 287.335786,15 287.75,15 Z M287.75,23 L306.25,23 C306.664214,23 307,23.3357864 307,23.75 C307,24.1642136 306.664214,24.5 306.25,24.5 L287.75,24.5 C287.335786,24.5 287,24.1642136 287,23.75 C287,23.3357864 287.335786,23 287.75,23 Z M287.75,31 L306.25,31 C306.664214,31 307,31.3357864 307,31.75 C307,32.1642136 306.664214,32.5 306.25,32.5 L287.75,32.5 C287.335786,32.5 287,32.1642136 287,31.75 C287,31.3357864 287.335786,31 287.75,31 Z" id="Combined-Shape"></path>
            </g>
        </g>
    </g>
</svg>