<?xml version="1.0" encoding="UTF-8"?>
<svg width="19px" height="20px" viewBox="0 0 19 20" version="1.1" xmlns="http://www.w3.org/2000/svg" xmlns:xlink="http://www.w3.org/1999/xlink">
    <!-- Generator: sketchtool 51.2 (57519) - http://www.bohemiancoding.com/sketch -->
    <title>B0D55AA3-B4A9-40E7-9869-56A941F8E7C6</title>
    <desc>Created with sketchtool.</desc>
    <defs></defs>
    <g id="Place_Mobile" stroke="none" stroke-width="1" fill="none" fill-rule="evenodd">
        <g id="모바일_메인" transform="translate(-13.000000, -74.000000)" fill="#FF4081">
            <g id="header" transform="translate(0.000000, 60.000000)">
                <g id="icon/serch" transform="translate(13.000000, 14.000000)">
                    <path d="M18.8037402,18.7456698 L14.2992458,14.264848 C17.4554578,11.0886185 17.5516324,5.99000431 14.5174494,2.69696949 C11.4832664,-0.596065342 6.39458133,-0.915881962 2.97209844,1.97136059 C-0.450384455,4.85860315 -0.993126873,9.92915117 1.74070926,13.4755618 C4.47454539,17.0219724 9.51560097,17.7867652 13.1779972,15.2107451 L17.7702415,19.8037094 C18.0583631,20.0722261 18.50735,20.064303 18.7858214,19.7857879 C19.0642929,19.5072728 19.0722147,19.0582155 18.8037402,18.7700486 L18.8037402,18.7456698 Z M1.59013659,8.41393799 C1.59013659,4.64400825 4.64578937,1.58787636 8.4151281,1.58787636 C12.1844668,1.58787636 15.2401196,4.64400825 15.2401196,8.41393799 C15.2401196,12.1838677 12.1844668,15.2399996 8.4151281,15.2399996 C4.64578937,15.2399996 1.59013659,12.1838677 1.59013659,8.41393799 Z" id="Shape"></path>
                </g>
            </g>
        </g>
    </g>
</svg>