<?xml version="1.0" encoding="UTF-8"?>
<svg width="22px" height="21px" viewBox="0 0 22 21" version="1.1" xmlns="http://www.w3.org/2000/svg" xmlns:xlink="http://www.w3.org/1999/xlink">
    <!-- Generator: sketchtool 52.6 (67491) - http://www.bohemiancoding.com/sketch -->
    <title>675AF6AF-BB91-4FDA-8837-9BD1795ADF8E</title>
    <desc>Created with sketchtool.</desc>
    <g id="Place_PC" stroke="none" stroke-width="1" fill="none" fill-rule="evenodd">
        <g id="메인_12/03_검색결과" transform="translate(-1452.000000, -160.000000)" fill="#333333">
            <g id="serch" transform="translate(330.000000, 140.000000)">
                <g id="icon/filter_b" transform="translate(1122.000000, 20.000000)">
                    <path d="M0.765037594,3.78599368 L2.14720551,3.78599368 C2.4868141,5.06594804 3.58820306,5.9502924 4.84268797,5.9502924 C6.09717288,5.9502924 7.19856184,5.06594804 7.53817043,3.78599368 L20.656015,3.78599368 C21.0785336,3.78599368 21.4210526,3.4229649 21.4210526,2.9751462 C21.4210526,2.5273275 21.0785336,2.16429872 20.656015,2.16429872 L7.54327068,2.16429872 C7.20366209,0.884344362 6.10227313,-7.54951657e-15 4.84778822,-7.54951657e-15 C3.59330331,-7.54951657e-15 2.49191435,0.884344362 2.15230576,2.16429872 L0.765037594,2.16429872 C0.342518998,2.16429872 5.80868686e-13,2.5273275 5.80868686e-13,2.9751462 C5.80868686e-13,3.4229649 0.342518998,3.78599368 0.765037594,3.78599368 Z M4.8452381,1.62373373 C5.54943576,1.62373373 6.12030075,2.2287817 6.12030075,2.9751462 C6.12030075,3.7215107 5.54943576,4.32655867 4.8452381,4.32655867 C4.14104043,4.32655867 3.57017544,3.7215107 3.57017544,2.9751462 C3.57017544,2.2287817 4.14104043,1.62373373 4.8452381,1.62373373 Z" id="Shape"></path>
                    <path d="M20.656015,9.03989428 L13.3218546,9.03989428 C12.904485,7.8950448 11.866997,7.14035088 10.7105263,7.14035088 C9.55405567,7.14035088 8.5165676,7.8950448 8.09919799,9.03989428 L0.765037594,9.03989428 C0.342518998,9.03989428 5.80868686e-13,9.40347498 5.80868686e-13,9.85197451 C5.80868686e-13,10.300474 0.342518998,10.6640547 0.765037594,10.6640547 L7.95639098,10.6640547 C8.20604496,12.0713192 9.36403108,13.0906433 10.7130764,13.0906433 C12.0621218,13.0906433 13.2201079,12.0713192 13.4697619,10.6640547 L20.656015,10.6640547 C21.0785336,10.6640547 21.4210526,10.300474 21.4210526,9.85197451 C21.4210526,9.40347498 21.0785336,9.03989428 20.656015,9.03989428 Z M10.7105263,11.476135 C10.0063287,11.476135 9.43546366,10.8701671 9.43546366,10.1226679 C9.43546366,9.37516871 10.0063287,8.76920087 10.7105263,8.76920087 C11.414724,8.76920087 11.985589,9.37516871 11.985589,10.1226679 C11.985589,10.8701671 11.414724,11.476135 10.7105263,11.476135 Z" id="Shape"></path>
                    <path d="M20.656015,16.4450005 L19.2738471,16.4450005 C18.9342385,15.1650461 17.8328496,14.2807018 16.5783647,14.2807018 C15.3238798,14.2807018 14.2224908,15.1650461 13.8828822,16.4450005 L0.765037594,16.4450005 C0.342518998,16.4450005 5.80868686e-13,16.8080293 5.80868686e-13,17.255848 C5.80868686e-13,17.7036667 0.342518998,18.0666954 0.765037594,18.0666954 L13.877782,18.0666954 C14.2173905,19.3466498 15.3187795,20.2309942 16.5732644,20.2309942 C17.8277493,20.2309942 18.9291383,19.3466498 19.2687469,18.0666954 L20.656015,18.0666954 C21.0785336,18.0666954 21.4210526,17.7036667 21.4210526,17.255848 C21.4210526,16.8080293 21.0785336,16.4450005 20.656015,16.4450005 Z M16.5758145,18.6072604 C15.8716169,18.6072604 15.3007519,18.0022125 15.3007519,17.255848 C15.3007519,16.5094835 15.8716169,15.9044355 16.5758145,15.9044355 C17.2800122,15.9044355 17.8508772,16.5094835 17.8508772,17.255848 C17.8508772,18.0022125 17.2800122,18.6072604 16.5758145,18.6072604 Z" id="Shape"></path>
                </g>
            </g>
        </g>
    </g>
</svg>