<?xml version="1.0" encoding="UTF-8"?>
<svg width="22px" height="21px" viewBox="0 0 22 21" version="1.1" xmlns="http://www.w3.org/2000/svg" xmlns:xlink="http://www.w3.org/1999/xlink">
    <!-- Generator: sketchtool 52.6 (67491) - http://www.bohemiancoding.com/sketch -->
    <title>B7D12789-7D9B-4F63-ADC3-83E557F9C85C</title>
    <desc>Created with sketchtool.</desc>
    <g id="Place_PC" stroke="none" stroke-width="1" fill="none" fill-rule="evenodd">
        <g id="메인_12/03_필터열림" transform="translate(-1452.000000, -160.000000)" fill="#FFFFFF">
            <g id="serch" transform="translate(330.000000, 140.000000)">
                <g id="icon/filter_w" transform="translate(1122.000000, 20.000000)">
                    <path d="M0.765037594,3.81467545 L2.14720551,3.81467545 C2.4868141,5.10432643 3.58820306,5.99537037 4.84268797,5.99537037 C6.09717288,5.99537037 7.19856184,5.10432643 7.53817043,3.81467545 L20.656015,3.81467545 C21.0785336,3.81467545 21.4210526,3.44889645 21.4210526,2.99768519 C21.4210526,2.54647392 21.0785336,2.18069492 20.656015,2.18069492 L7.54327068,2.18069492 C7.20366209,0.891043941 6.10227313,0 4.84778822,0 C3.59330331,0 2.49191435,0.891043941 2.15230576,2.18069492 L0.765037594,2.18069492 C0.342518998,2.18069492 0,2.54647392 0,2.99768519 C0,3.44889645 0.342518998,3.81467545 0.765037594,3.81467545 Z M4.8452381,1.63603474 C5.54943576,1.63603474 6.12030075,2.24566641 6.12030075,2.99768519 C6.12030075,3.74970396 5.54943576,4.35933563 4.8452381,4.35933563 C4.14104043,4.35933563 3.57017544,3.74970396 3.57017544,2.99768519 C3.57017544,2.24566641 4.14104043,1.63603474 4.8452381,1.63603474 Z" id="Shape"></path>
                    <path d="M20.656015,9.10837832 L13.3218546,9.10837832 C12.904485,7.95485575 11.866997,7.19444444 10.7105263,7.19444444 C9.55405567,7.19444444 8.5165676,7.95485575 8.09919799,9.10837832 L0.765037594,9.10837832 C0.342518998,9.10837832 0,9.47471343 0,9.92661068 C0,10.3785079 0.342518998,10.744843 0.765037594,10.744843 L7.95639098,10.744843 C8.20604496,12.1627686 9.36403108,13.1898148 10.7130764,13.1898148 C12.0621218,13.1898148 13.2201079,12.1627686 13.4697619,10.744843 L20.656015,10.744843 C21.0785336,10.744843 21.4210526,10.3785079 21.4210526,9.92661068 C21.4210526,9.47471343 21.0785336,9.10837832 20.656015,9.10837832 Z M10.7105263,11.5630754 C10.0063287,11.5630754 9.43546366,10.9525169 9.43546366,10.1993548 C9.43546366,9.44619271 10.0063287,8.83563421 10.7105263,8.83563421 C11.414724,8.83563421 11.985589,9.44619271 11.985589,10.1993548 C11.985589,10.9525169 11.414724,11.5630754 10.7105263,11.5630754 Z" id="Shape"></path>
                    <path d="M20.656015,16.5695838 L19.2738471,16.5695838 C18.9342385,15.2799328 17.8328496,14.3888889 16.5783647,14.3888889 C15.3238798,14.3888889 14.2224908,15.2799328 13.8828822,16.5695838 L0.765037594,16.5695838 C0.342518998,16.5695838 0,16.9353628 0,17.3865741 C0,17.8377853 0.342518998,18.2035643 0.765037594,18.2035643 L13.877782,18.2035643 C14.2173905,19.4932153 15.3187795,20.3842593 16.5732644,20.3842593 C17.8277493,20.3842593 18.9291383,19.4932153 19.2687469,18.2035643 L20.656015,18.2035643 C21.0785336,18.2035643 21.4210526,17.8377853 21.4210526,17.3865741 C21.4210526,16.9353628 21.0785336,16.5695838 20.656015,16.5695838 Z M16.5758145,18.7482245 C15.8716169,18.7482245 15.3007519,18.1385928 15.3007519,17.3865741 C15.3007519,16.6345553 15.8716169,16.0249236 16.5758145,16.0249236 C17.2800122,16.0249236 17.8508772,16.6345553 17.8508772,17.3865741 C17.8508772,18.1385928 17.2800122,18.7482245 16.5758145,18.7482245 Z" id="Shape"></path>
                </g>
            </g>
        </g>
    </g>
</svg>