<?xml version="1.0" encoding="UTF-8"?>
<svg width="18px" height="18px" viewBox="0 0 18 18" version="1.1" xmlns="http://www.w3.org/2000/svg" xmlns:xlink="http://www.w3.org/1999/xlink">
    <!-- Generator: sketchtool 52.4 (67378) - http://www.bohemiancoding.com/sketch -->
    <title>18FB70A4-D66D-4D04-A014-C0716CE46E87</title>
    <desc>Created with sketchtool.</desc>
    <g id="Place_PC" stroke="none" stroke-width="1" fill="none" fill-rule="evenodd">
        <g id="메인_11/22" transform="translate(-1572.000000, -548.000000)" fill="#999999">
            <g id="map" transform="translate(330.000000, 530.000000)">
                <g id="Arrow_right" transform="translate(1242.000000, 18.000000)">
                    <path d="M9,0 C4.02943725,1.16270629e-14 0,4.02943725 0,9 C0,13.9705627 4.02943725,18 9,18 C13.9705627,18 18,13.9705627 18,9 C18,4.02943725 13.9705627,1.16270629e-14 9,1.16270629e-14 L9,0 Z M9,16.7727273 C4.70724126,16.7727273 1.22727273,13.2927587 1.22727273,9 C1.22727273,4.70724126 4.70724126,1.22727273 9,1.22727273 C13.2927587,1.22727273 16.7727273,4.70724126 16.7727273,9 C16.7727273,11.0614554 15.9538173,13.038479 14.4961482,14.4961482 C13.038479,15.9538173 11.0614554,16.7727273 9,16.7727273 Z" id="Shape"></path>
                    <path d="M8.11004002,5.17423038 C7.84996737,4.93589111 7.44468989,4.94292376 7.193328,5.19013779 C6.94196611,5.43735182 6.93481546,5.83594159 7.17715369,6.09172264 L10.1342273,9 L7.17715369,11.9082774 C6.93481546,12.1640584 6.94196611,12.5626482 7.193328,12.8098622 C7.44468989,13.0570762 7.84996737,13.0641089 8.11004002,12.8257696 L12,9 L11.0671137,8.08250774 L8.11004002,5.17423038 Z" id="Shape"></path>
                </g>
            </g>
        </g>
    </g>
</svg>