<?xml version="1.0" encoding="UTF-8"?>
<svg width="15px" height="15px" viewBox="0 0 15 15" version="1.1" xmlns="http://www.w3.org/2000/svg" xmlns:xlink="http://www.w3.org/1999/xlink">
    <!-- Generator: sketchtool 52.4 (67378) - http://www.bohemiancoding.com/sketch -->
    <title>3485CA1D-B1EF-4937-AC5D-0CAFBBD5EC10</title>
    <desc>Created with sketchtool.</desc>
    <g id="Place_PC" stroke="none" stroke-width="1" fill="none" fill-rule="evenodd">
        <g id="메인_11/22" transform="translate(-351.000000, -549.000000)" fill="#555555">
            <g id="map" transform="translate(330.000000, 530.000000)">
                <path d="M34.5897032,23.3104177 C34.3430617,23.0870389 33.9654921,23.108773 33.7440754,23.354691 C33.5218578,23.6014139 33.5406763,23.9825666 33.7849154,24.2067504 C33.7949252,24.2156051 34.7610709,25.11717 34.7975066,26.3463573 C34.8203289,27.1175173 34.4703864,27.8826401 33.7572883,28.6211989 C33.5262622,28.8606771 33.5314673,29.2426348 33.7697005,29.4752708 C33.8862145,29.5891738 34.0371623,29.6455216 34.1881101,29.6455216 C34.3450637,29.6455216 34.5012166,29.584344 34.6189318,29.4623913 C35.5714642,28.4763046 36.0355185,27.4109284 35.9978817,26.2952418 C35.9386237,24.5484596 34.6449573,23.3599233 34.5897032,23.3104177 M30.8512435,32.2681098 C30.8528451,32.623101 30.7731671,32.7575308 30.7447393,32.77685 C30.6978934,32.8086463 30.5329319,32.7929494 30.442043,32.7559208 C29.3834067,32.2512054 26.5262097,30.8743064 26.0217158,30.5696257 C25.6873886,30.3683836 25.6945956,30.1977302 25.7082089,29.8584359 C25.7110117,29.7944409 25.7130136,29.7340682 25.7130136,29.6769154 C25.7118125,29.3022025 25.7130136,23.1723656 25.7130136,23.1723656 C25.7130136,23.1719631 25.7130136,23.1711581 25.7130136,23.1703532 C25.7122129,22.9336923 25.8863834,22.7968477 25.9292253,22.7670638 C26.421307,22.5324154 29.037468,21.0907164 30.2362415,20.3296185 C30.4620626,20.1875415 30.6358327,20.1867365 30.7235185,20.2350347 C30.8348275,20.2958098 30.8536459,20.4507663 30.8552475,20.5469601 C30.8620541,20.8262842 30.8548471,29.1005578 30.8512435,32.2681098 Z M24.5114374,29.3690149 L22.2011759,29.3690149 L22.2011759,23.6839232 L24.5118378,23.6839232 C24.5114374,24.9682508 24.511037,28.309676 24.5114374,29.3690149 Z M31.2964794,19.1740859 C30.797591,18.901604 30.162169,18.9511095 29.5964152,19.3077107 C28.3219676,20.1171067 25.6573592,21.5684654 25.4115185,21.6775386 C25.3918993,21.6855883 25.3726805,21.6948455 25.3542625,21.7057125 C25.146459,21.821628 24.8469659,22.0852553 24.6667895,22.4764701 L21.6005879,22.4764701 C21.268663,22.4764701 21,22.7469396 21,23.0801967 L21,29.9727414 C21,30.3059985 21.268663,30.576468 21.6005879,30.576468 L24.5763009,30.576468 C24.6743969,30.9234095 24.8986164,31.3013423 25.4039111,31.605218 C26.0613546,32.0020676 29.7693845,33.7713889 29.943555,33.8547031 C29.9944048,33.8768398 30.2910952,34 30.6566531,34 C30.8928843,34 31.1583442,33.948482 31.4045852,33.7854758 C31.8374089,33.4997119 32.0556225,32.9873493 32.0524194,32.2664998 C32.0536206,31.0924529 32.0644311,20.7896581 32.0560229,20.5191886 C32.0468139,19.9315615 31.762936,19.4288585 31.2964794,19.1740859 Z" id="6D"></path>
            </g>
        </g>
    </g>
</svg>