<?xml version="1.0" encoding="UTF-8"?>
<svg width="123px" height="14px" viewBox="0 0 123 14" version="1.1" xmlns="http://www.w3.org/2000/svg" xmlns:xlink="http://www.w3.org/1999/xlink">
    <!-- Generator: sketchtool 52.4 (67378) - http://www.bohemiancoding.com/sketch -->
    <title>FD78828E-8640-4B69-A2DB-86F536341E73</title>
    <desc>Created with sketchtool.</desc>
    <defs>
        <polygon id="path-1" points="0 0 14.2674146 0 14.2674146 8.97353501 0 8.97353501"></polygon>
    </defs>
    <g id="Place_PC" stroke="none" stroke-width="1" fill="none" fill-rule="evenodd">
        <g id="메인_11/22" transform="translate(-1639.000000, -549.000000)">
            <g id="logo/onoffmix_blue" transform="translate(1639.000000, 549.000000)">
                <g id="logo/onoffmix" stroke-width="1" transform="translate(12.636986, 0.000000)">
                    <path d="M0,5.5492666 C0,4.79757418 0.64125169,4.18842928 1.43459014,4.18842928 C2.22702178,4.18842928 2.86911552,4.79757418 2.86911552,5.5492666 L2.86911552,5.65673023 C3.52979908,4.85090661 4.37832404,4.11764706 5.83228128,4.11764706 C8.00217336,4.11764706 9.26712329,5.47756274 9.26712329,7.68010633 L9.26712329,12.6391627 C9.26712329,13.3907937 8.62502955,14 7.83259792,14 C7.04023105,14 6.39800777,13.3907937 6.39800777,12.6391627 L6.39800777,8.53920094 C6.39800777,7.25006748 5.75669131,6.5875287 4.66215888,6.5875287 C3.56659008,6.5875287 2.86911552,7.25006748 2.86911552,8.53920094 L2.86911552,12.6391627 C2.86911552,13.3907937 2.22702178,14 1.43459014,14 C0.64125169,14 0,13.3907937 0,12.6391627 L0,5.5492666 Z" id="Fill-4" fill="#4195F5"></path>
                    <path d="M19.0723565,9.09422901 L19.0723565,9.05879314 C19.0723565,7.65904589 17.995698,6.43732894 16.4091593,6.43732894 C14.766565,6.43732894 13.78478,7.62354924 13.78478,9.02341805 L13.78478,9.05879314 C13.78478,10.4576894 14.8614385,11.6794064 16.447005,11.6794064 C18.0895994,11.6794064 19.0723565,10.4931861 19.0723565,9.09422901 M10.9520548,9.09422901 L10.9520548,9.05879314 C10.9520548,6.33102133 13.2934338,4.11764706 16.447005,4.11764706 C19.582107,4.11764706 21.9041096,6.29558546 21.9041096,9.02341805 L21.9041096,9.05879314 C21.9041096,11.7857748 19.5627306,14 16.4091593,14 C13.2750294,14 10.9520548,11.8211499 10.9520548,9.09422901" id="Fill-6" fill="#4195F5"></path>
                    <path d="M31.5833074,6.69323625 L31.4656385,6.69323625 C30.7797969,6.69323625 30.2307875,6.21450129 30.2307875,5.59377693 C30.2307875,4.97299171 30.7797969,4.47697215 31.4656385,4.47697215 L31.5833074,4.47697215 L31.5833074,3.8735324 C31.5833074,2.82775275 31.8769417,2.06509985 32.4249425,1.56816737 C32.9739519,1.07202608 33.7773279,0.823529412 34.8352048,0.823529412 C35.3057459,0.823529412 35.7171164,0.841726939 36.049884,0.894554544 C36.5596929,0.965579677 37.0684932,1.3732895 37.0684932,1.97581633 C37.0684932,2.57931694 36.5204251,3.09353403 35.8538812,3.09353403 L35.5993802,3.09353403 C34.9136732,3.09353403 34.521466,3.41299497 34.521466,4.12196821 L34.521466,4.49425676 L35.8146134,4.49425676 C36.5003205,4.49425676 37.0493299,4.97299171 37.0493299,5.59377693 C37.0493299,6.21450129 36.5003205,6.69323625 35.8146134,6.69323625 L34.5606665,6.69323625 L34.5606665,12.652044 C34.5606665,13.3965602 33.8949968,14 33.0715163,14 C32.2489771,14 31.5833074,13.3965602 31.5833074,12.652044 L31.5833074,6.69323625 Z M24.099028,6.69323625 L23.9813591,6.69323625 C23.2955848,6.69323625 22.7465753,6.21450129 22.7465753,5.59377693 C22.7465753,4.97299171 23.2955848,4.47697215 23.9813591,4.47697215 L24.099028,4.47697215 L24.099028,3.8735324 C24.099028,2.82775275 24.3926623,2.06509985 24.9406631,1.56816737 C25.4896725,1.07202608 26.2930485,0.823529412 27.3509254,0.823529412 C27.8215338,0.823529412 28.2327697,0.841726939 28.5656718,0.894554544 C29.0754135,0.965579677 29.5842138,1.3732895 29.5842138,1.97581633 C29.5842138,2.57931694 29.0362129,3.09353403 28.3696018,3.09353403 L28.1151008,3.09353403 C27.4293938,3.09353403 27.0372538,3.41299497 27.0372538,4.12196821 L27.0372538,4.49425676 L28.3304013,4.49425676 C29.0161083,4.49425676 29.5651178,4.97299171 29.5651178,5.59377693 C29.5651178,6.21450129 29.0161083,6.69323625 28.3304013,6.69323625 L27.0764543,6.69323625 L27.0764543,12.652044 C27.0764543,13.3965602 26.4107846,14 25.5872369,14 C24.7647649,14 24.099028,13.3965602 24.099028,12.652044 L24.099028,6.69323625 Z" id="Fill-8" fill="#4195F5"></path>
                    <path d="M38.7534247,5.5492666 C38.7534247,4.79757418 39.4182892,4.18842928 40.2407065,4.18842928 C41.0623179,4.18842928 41.7281227,4.79757418 41.7281227,5.5492666 L41.7281227,5.65673023 C42.4131347,4.85090661 43.3129852,4.11764706 44.8194743,4.11764706 C46.1894311,4.11764706 47.2268213,4.67266076 47.7741592,5.639219 C48.6941572,4.65428934 49.7899077,4.11764706 51.2180905,4.11764706 C53.4296718,4.11764706 54.760274,5.3342779 54.760274,7.64422367 L54.760274,12.6391627 C54.760274,13.3907937 54.0954094,14 53.2729249,14 C52.4513807,14 51.7865161,13.3907937 51.7865161,12.6391627 L51.7865161,8.53920094 C51.7865161,7.25006748 51.1597973,6.5875287 50.0440337,6.5875287 C48.9291432,6.5875287 48.2442655,7.25006748 48.2442655,8.53920094 L48.2442655,12.6391627 C48.2442655,13.3907937 47.5783936,14 46.7568493,14 C45.9352379,14 45.2694331,13.3907937 45.2694331,12.6391627 L45.2694331,8.53920094 C45.2694331,7.25006748 44.6437217,6.5875287 43.5279581,6.5875287 C42.4131347,6.5875287 41.7281227,7.25006748 41.7281227,8.53920094 L41.7281227,12.6391627 C41.7281227,13.3907937 41.0623179,14 40.2407065,14 C39.4182892,14 38.7534247,13.3907937 38.7534247,12.6391627 L38.7534247,5.5492666 Z" id="Fill-10" fill="#4195F5"></path>
                    <path d="M61.0521621,11.8877156 L63.621685,8.98718735 L61.2765785,6.40914483 C60.9579149,6.05170116 60.8076602,5.72921546 60.8076602,5.37085022 C60.8076602,4.6018364 61.4084215,4.11764706 62.1209404,4.11764706 C62.6841059,4.11764706 63.0777681,4.36849658 63.4532761,4.81594626 L65.3103445,7.17908022 L67.2041074,4.81594626 C67.5420196,4.42262306 67.9356818,4.11764706 68.4421959,4.11764706 C69.1930832,4.11764706 69.7745316,4.61928466 69.7745316,5.29927548 C69.7745316,5.67588766 69.6050927,5.96163371 69.3807406,6.23085306 L66.9422239,8.95130782 L69.455868,11.7086251 C69.7745316,12.0668675 69.9246575,12.388493 69.9246575,12.7467968 C69.9246575,13.5167322 69.324025,14 68.6115704,14 C68.048405,14 67.654614,13.7491505 67.2792348,13.3017622 L65.2536288,10.7594764 L63.2280228,13.3017622 C62.8901106,13.6958841 62.4963197,14 61.9898699,14 C61.2389826,14 60.6575342,13.4984238 60.6575342,12.818433 C60.6575342,12.442681 60.8076602,12.1560133 61.0521621,11.8877156" id="Fill-12" fill="#4195F5"></path>
                    <path d="M58.130175,4.11764706 C57.1995922,4.11764706 56.4452055,4.73118642 56.4452055,5.48830167 L56.4452055,12.6293454 C56.4452055,13.3863987 57.1995922,14 58.130175,14 C59.0608339,14 59.8150685,13.3863987 59.8150685,12.6293454 L59.8150685,5.48830167 C59.8150685,4.73118642 59.0608339,4.11764706 58.130175,4.11764706" id="Fill-14" fill="#4195F5"></path>
                    <path d="M59.8150685,1.64699237 C59.8150685,2.55670896 59.0606358,3.29411765 58.130069,3.29411765 C57.1995702,3.29411765 56.4452055,2.55670896 56.4452055,1.64699237 C56.4452055,0.737408689 57.1995702,0 58.130069,0 C59.0606358,0 59.8150685,0.737408689 59.8150685,1.64699237" id="Fill-16" fill="#4195F5"></path>
                    <path d="M75.8219178,9.50420538 L75.8219178,9.47055753 C75.8219178,7.02120294 77.8651815,4.94117647 80.5723878,4.94117647 C82.1132989,4.94117647 83.1528414,5.49476954 83.9779804,6.19983932 C84.0847229,6.28328353 84.1923184,6.45121576 84.1923184,6.65267304 C84.1923184,7.00480883 83.8878364,7.273439 83.5290974,7.273439 C83.3506465,7.273439 83.1886628,7.20626611 83.0810674,7.12196229 C82.4178465,6.5519137 81.6653344,6.08188765 80.5540835,6.08188765 C78.6718849,6.08188765 77.2377164,7.57479601 77.2377164,9.43703249 L77.2377164,9.47055753 C77.2377164,11.3491881 78.7077063,12.8420965 80.6432433,12.8420965 C81.7011558,12.8420965 82.5438775,12.3892014 83.2246155,11.7856277 C83.3146938,11.7013239 83.4398063,11.6177569 83.619307,11.6177569 C83.9596104,11.6177569 84.2465753,11.9027812 84.2465753,12.2049364 C84.2465753,12.3556149 84.1748013,12.507153 84.0672059,12.607851 C83.1886628,13.4292146 82.1316688,14 80.5723878,14 C77.8651815,14 75.8219178,11.9363676 75.8219178,9.50420538" id="Fill-18" fill="#4195F5"></path>
                    <path d="M92.9980368,9.50420538 L92.9980368,9.47055753 C92.9980368,7.60832106 91.571188,6.08188765 89.697021,6.08188765 C87.7715648,6.08188765 86.4470428,7.60832106 86.4470428,9.43703249 L86.4470428,9.47055753 C86.4470428,11.332794 87.8571518,12.8420965 89.7313817,12.8420965 C91.6568379,12.8420965 92.9980368,11.332794 92.9980368,9.50420538 M85.0890411,9.50420538 L85.0890411,9.47055753 C85.0890411,7.02120294 87.0489209,4.94117647 89.7313817,4.94117647 C92.3962216,4.94117647 94.3561644,6.9875551 94.3561644,9.43703249 L94.3561644,9.47055753 C94.3561644,11.9199735 92.3795448,14 89.697021,14 C87.0320552,14 85.0890411,11.9536214 85.0890411,9.50420538" id="Fill-20" fill="#4195F5"></path>
                    <g id="Group-24" transform="translate(96.041096, 4.941176)">
                        <mask id="mask-2" fill="white">
                            <use xlink:href="#path-1"></use>
                        </mask>
                        <g id="Clip-23"></g>
                        <path d="M0,0.757798319 C0,0.404380952 0.309220198,0.101064426 0.691182415,0.101064426 C1.09186305,0.101064426 1.40108324,0.38712605 1.40108324,0.757798319 L1.40108324,1.65036975 C2.01939041,0.791445378 2.85725591,0 4.44046066,0 C5.96937534,0 6.95205874,0.757798319 7.46111966,1.73417927 C8.13451625,0.775053221 9.13585145,0 10.7732796,0 C12.9392865,0 14.2674279,1.34705322 14.2674279,3.50206723 L14.2674279,8.31766387 C14.2674279,8.68753501 13.9583409,8.97353501 13.5762455,8.97353501 C13.1755649,8.97353501 12.8664113,8.68753501 12.8664113,8.31766387 L12.8664113,3.80538375 C12.8664113,2.1212437 11.9566031,1.17857143 10.4276218,1.17857143 C9.00795339,1.17857143 7.84314849,2.15501401 7.84314849,3.8727395 L7.84314849,8.31766387 C7.84314849,8.68753501 7.5339949,8.97353501 7.13418025,8.97353501 C6.75128544,8.97353501 6.44206524,8.68753501 6.44206524,8.31766387 L6.44206524,3.77173669 C6.44206524,2.13862185 5.5136719,1.17857143 4.02192759,1.17857143 C2.52938391,1.17857143 1.40108324,2.3234958 1.40108324,3.92290196 L1.40108324,8.31766387 C1.40108324,8.68753501 1.10971548,8.97353501 0.709900828,8.97353501 C0.309220198,8.97353501 0,8.68753501 0,8.31766387 L0,0.757798319 Z" id="Fill-22" fill="#4195F5" mask="url(#mask-2)"></path>
                    </g>
                    <path d="M74.9794521,12.3529766 C74.9794521,13.2626347 74.2251317,14 73.2944843,14 C72.3639094,14 71.609589,13.2626347 71.609589,12.3529766 C71.609589,11.4432476 72.3639094,10.7058824 73.2944843,10.7058824 C74.2251317,10.7058824 74.9794521,11.4432476 74.9794521,12.3529766" id="Fill-25" fill="#4195F5"></path>
                </g>
                <path d="M8.12030169,9.09422901 L8.12030169,9.05879314 C8.12030169,7.65904589 7.0436432,6.43732894 5.45710454,6.43732894 C3.81451018,6.43732894 2.83272517,7.62354924 2.83272517,9.02341805 L2.83272517,9.05879314 C2.83272517,10.4576894 3.90938366,11.6794064 5.49495025,11.6794064 C7.13754462,11.6794064 8.12030169,10.4931861 8.12030169,9.09422901 M0,9.09422901 L0,9.05879314 C0,6.33102133 2.34137904,4.11764706 5.49495025,4.11764706 C8.63005224,4.11764706 10.9520548,6.29558546 10.9520548,9.02341805 L10.9520548,9.05879314 C10.9520548,11.7857748 8.61067576,14 5.45710454,14 C2.32297462,14 0,11.8211499 0,9.09422901" id="Fill-6" fill="#4195F5"></path>
            </g>
        </g>
    </g>
</svg>