<?xml version="1.0" encoding="UTF-8"?>
<svg width="15px" height="16px" viewBox="0 0 15 16" version="1.1" xmlns="http://www.w3.org/2000/svg" xmlns:xlink="http://www.w3.org/1999/xlink">
    <!-- Generator: sketchtool 52.5 (67469) - http://www.bohemiancoding.com/sketch -->
    <title>4E69ED7E-17EB-44BC-BB8D-19D6155D0897</title>
    <desc>Created with sketchtool.</desc>
    <g id="Place_Mobile" stroke="none" stroke-width="1" fill="none" fill-rule="evenodd">
        <g id="모바일_메인_12/03" transform="translate(-270.000000, -243.000000)" fill="#333333">
            <g id="serch" transform="translate(25.000000, 235.000000)">
                <g id="icon/serch" transform="translate(245.000000, 8.000000)">
                    <path d="M14.845058,14.9965359 L11.2888782,11.4118784 C13.7806246,8.8708948 13.8565519,4.79200345 11.4611443,2.15757559 C9.06573661,-0.476852274 5.04835369,-0.73270557 2.34639351,1.57708847 C-0.355566675,3.88688252 -0.784047531,7.94332094 1.37424415,10.7804494 C3.53253584,13.6175779 7.51231656,14.2294122 10.403682,12.1685961 L14.029138,15.8429675 C14.2566025,16.0577808 14.6110658,16.0514424 14.8309117,15.8286303 C15.0507575,15.6058182 15.0570116,15.2465724 14.845058,15.0160389 L14.845058,14.9965359 Z M1.25537099,6.73115039 C1.25537099,3.7152066 3.66772845,1.27030109 6.64352218,1.27030109 C9.61931592,1.27030109 12.0316734,3.7152066 12.0316734,6.73115039 C12.0316734,9.74709419 9.61931592,12.1919997 6.64352218,12.1919997 C3.66772845,12.1919997 1.25537099,9.74709419 1.25537099,6.73115039 Z" id="Shape"></path>
                </g>
            </g>
        </g>
    </g>
</svg>